<mxfile host="app.diagrams.net" modified="2023-05-16T10:30:07.034Z" agent="Mozilla/5.0 (Windows NT 10.0; Win64; x64) AppleWebKit/537.36 (KHTML, like Gecko) Chrome/113.0.0.0 Safari/537.36" etag="jU0Tlcu04tpYeN7RGzKu" version="21.3.2" type="device">
  <diagram name="Страница 1" id="NO5Qt9L1YYSvqhi7mukO">
    <mxGraphModel dx="1050" dy="573" grid="1" gridSize="10" guides="1" tooltips="1" connect="1" arrows="1" fold="1" page="1" pageScale="1" pageWidth="827" pageHeight="1169" math="0" shadow="0">
      <root>
        <mxCell id="0" />
        <mxCell id="1" parent="0" />
        <mxCell id="43PWvJmiqUTdgf14Kpds-10" style="edgeStyle=orthogonalEdgeStyle;rounded=0;orthogonalLoop=1;jettySize=auto;html=1;entryX=0;entryY=0.25;entryDx=0;entryDy=0;exitX=1;exitY=0.25;exitDx=0;exitDy=0;" edge="1" parent="1" source="43PWvJmiqUTdgf14Kpds-1" target="43PWvJmiqUTdgf14Kpds-3">
          <mxGeometry relative="1" as="geometry">
            <Array as="points" />
          </mxGeometry>
        </mxCell>
        <mxCell id="43PWvJmiqUTdgf14Kpds-1" value="" style="rounded=0;whiteSpace=wrap;html=1;" vertex="1" parent="1">
          <mxGeometry x="80" y="120" width="110" height="80" as="geometry" />
        </mxCell>
        <mxCell id="43PWvJmiqUTdgf14Kpds-2" value="&lt;b&gt;Браузер&lt;/b&gt;" style="text;html=1;strokeColor=none;fillColor=none;align=center;verticalAlign=middle;whiteSpace=wrap;rounded=0;" vertex="1" parent="1">
          <mxGeometry x="105" y="145" width="60" height="30" as="geometry" />
        </mxCell>
        <mxCell id="43PWvJmiqUTdgf14Kpds-11" style="edgeStyle=orthogonalEdgeStyle;rounded=0;orthogonalLoop=1;jettySize=auto;html=1;exitX=0;exitY=0.75;exitDx=0;exitDy=0;entryX=1;entryY=0.75;entryDx=0;entryDy=0;" edge="1" parent="1" source="43PWvJmiqUTdgf14Kpds-3" target="43PWvJmiqUTdgf14Kpds-1">
          <mxGeometry relative="1" as="geometry" />
        </mxCell>
        <mxCell id="43PWvJmiqUTdgf14Kpds-3" value="" style="rounded=0;whiteSpace=wrap;html=1;" vertex="1" parent="1">
          <mxGeometry x="400" y="120" width="120" height="80" as="geometry" />
        </mxCell>
        <mxCell id="43PWvJmiqUTdgf14Kpds-4" value="" style="shape=datastore;whiteSpace=wrap;html=1;" vertex="1" parent="1">
          <mxGeometry x="437.5" y="180" width="45" height="40" as="geometry" />
        </mxCell>
        <mxCell id="43PWvJmiqUTdgf14Kpds-5" value="" style="rounded=0;whiteSpace=wrap;html=1;" vertex="1" parent="1">
          <mxGeometry x="105" y="180" width="60" height="40" as="geometry" />
        </mxCell>
        <mxCell id="43PWvJmiqUTdgf14Kpds-6" value="&lt;b&gt;Web - cервер&lt;/b&gt;" style="text;html=1;strokeColor=none;fillColor=none;align=center;verticalAlign=middle;whiteSpace=wrap;rounded=0;" vertex="1" parent="1">
          <mxGeometry x="415" y="145" width="90" height="30" as="geometry" />
        </mxCell>
        <mxCell id="43PWvJmiqUTdgf14Kpds-7" value="Сервер" style="text;html=1;strokeColor=none;fillColor=none;align=center;verticalAlign=middle;whiteSpace=wrap;rounded=0;" vertex="1" parent="1">
          <mxGeometry x="430" y="220" width="60" height="30" as="geometry" />
        </mxCell>
        <mxCell id="43PWvJmiqUTdgf14Kpds-8" value="Клиент" style="text;html=1;strokeColor=none;fillColor=none;align=center;verticalAlign=middle;whiteSpace=wrap;rounded=0;" vertex="1" parent="1">
          <mxGeometry x="105" y="220" width="60" height="30" as="geometry" />
        </mxCell>
        <mxCell id="43PWvJmiqUTdgf14Kpds-12" value="&lt;i&gt;Запрос&lt;/i&gt;" style="text;html=1;strokeColor=none;fillColor=none;align=center;verticalAlign=middle;whiteSpace=wrap;rounded=0;" vertex="1" parent="1">
          <mxGeometry x="200" y="115" width="60" height="30" as="geometry" />
        </mxCell>
        <mxCell id="43PWvJmiqUTdgf14Kpds-13" value="&lt;i&gt;Ответ&lt;/i&gt;" style="text;html=1;strokeColor=none;fillColor=none;align=center;verticalAlign=middle;whiteSpace=wrap;rounded=0;" vertex="1" parent="1">
          <mxGeometry x="340" y="180" width="60" height="30" as="geometry" />
        </mxCell>
        <mxCell id="43PWvJmiqUTdgf14Kpds-15" value="&lt;b&gt;HHTP&lt;/b&gt;" style="text;html=1;strokeColor=none;fillColor=none;align=center;verticalAlign=middle;whiteSpace=wrap;rounded=0;" vertex="1" parent="1">
          <mxGeometry x="260" y="145" width="60" height="30" as="geometry" />
        </mxCell>
      </root>
    </mxGraphModel>
  </diagram>
</mxfile>
